<svg xmlns="http://www.w3.org/2000/svg" xmlns:xlink="http://www.w3.org/1999/xlink" contentStyleType="text/css" data-diagram-type="DESCRIPTION" height="633px" preserveAspectRatio="none" style="width:4100px;height:633px;background:#FFFFFF;" version="1.1" viewBox="0 0 4100 633" width="4100px" zoomAndPan="magnify"><?plantuml 1.2026.4?><defs/><g><g class="title" data-source-line="2"><text fill="#000000" font-family="sans-serif" font-size="14" font-weight="700" lengthAdjust="spacing" textLength="561.4971" x="1765.7515" y="22.9951">SCFCA PoC &#8212; DevSecOps Pipeline and Evidence Outputs (GitLab CI/CD)</text></g><!--cluster pipeline--><g class="cluster" data-qualified-name="pipeline" data-source-line="7" id="ent0001"><rect fill="none" height="318.29" rx="2.5" ry="2.5" style="stroke:#181818;stroke-width:1;" width="4079" x="7" y="44.2969"/><text fill="#000000" font-family="sans-serif" font-size="14" font-weight="700" lengthAdjust="spacing" textLength="167.248" x="1962.876" y="59.292">GitLab CI/CD Pipeline</text></g><!--cluster stage_validate--><g class="cluster" data-qualified-name="pipeline.stage_validate" data-source-line="9" id="ent0002"><rect fill="none" height="103.59" rx="2.5" ry="2.5" style="stroke:#181818;stroke-width:1;" width="455" x="3159" y="95.4469"/><text fill="#000000" font-family="sans-serif" font-size="14" font-weight="700" lengthAdjust="spacing" textLength="63.8271" x="3354.5864" y="110.442">validate</text></g><!--cluster stage_test--><g class="cluster" data-qualified-name="pipeline.stage_test" data-source-line="14" id="ent0005"><rect fill="none" height="119.89" rx="2.5" ry="2.5" style="stroke:#181818;stroke-width:1;" width="204" x="3638" y="87.2969"/><text fill="#000000" font-family="sans-serif" font-size="14" font-weight="700" lengthAdjust="spacing" textLength="31.2129" x="3724.3936" y="102.292">test</text></g><!--cluster stage_build--><g class="cluster" data-qualified-name="pipeline.stage_build" data-source-line="18" id="ent0007"><rect fill="none" height="103.59" rx="2.5" ry="2.5" style="stroke:#181818;stroke-width:1;" width="196" x="3866" y="95.4469"/><text fill="#000000" font-family="sans-serif" font-size="14" font-weight="700" lengthAdjust="spacing" textLength="39.6074" x="3944.1963" y="110.442">build</text></g><!--cluster stage_security--><g class="cluster" data-qualified-name="pipeline.stage_security" data-source-line="22" id="ent0009"><rect fill="none" height="201.2" rx="2.5" ry="2.5" style="stroke:#181818;stroke-width:1;" width="3088" x="39" y="129.3869"/><text fill="#000000" font-family="sans-serif" font-size="14" font-weight="700" lengthAdjust="spacing" textLength="187.209" x="1489.3955" y="144.382">security (visibility-first)</text></g><!--cluster manual--><g class="cluster" data-qualified-name="manual" data-source-line="63" id="ent0036"><rect fill="none" height="224.89" rx="2.5" ry="2.5" style="stroke:#181818;stroke-width:1;" width="351" x="1395" y="394.5869"/><text fill="#000000" font-family="sans-serif" font-size="14" font-weight="700" lengthAdjust="spacing" textLength="209.9863" x="1465.5068" y="409.582">Manual validation + triage</text></g><!--entity validate_backend--><g class="entity" data-qualified-name="pipeline.stage_validate.validate_backend" data-source-line="10" id="ent0003"><rect fill="#F1F1F1" height="52.5938" rx="2.5" ry="2.5" style="stroke:#181818;stroke-width:0.5;" width="200.1201" x="3174.94" y="130.4469"/><text fill="#000000" font-family="sans-serif" font-size="14" lengthAdjust="spacing" textLength="175.0479" x="3184.94" y="153.442">backend_compile_import</text><text fill="#000000" font-family="sans-serif" font-size="14" lengthAdjust="spacing" textLength="180.1201" x="3184.94" y="169.7389">(compileall + app import)</text></g><!--entity validate_compose--><g class="entity" data-qualified-name="pipeline.stage_validate.validate_compose" data-source-line="11" id="ent0004"><rect fill="#F1F1F1" height="52.5938" rx="2.5" ry="2.5" style="stroke:#181818;stroke-width:0.5;" width="187.7266" x="3410.14" y="130.4469"/><text fill="#000000" font-family="sans-serif" font-size="14" lengthAdjust="spacing" textLength="167.7266" x="3420.14" y="153.442">docker_compose_config</text><text fill="#000000" font-family="sans-serif" font-size="14" lengthAdjust="spacing" textLength="121.4746" x="3420.14" y="169.7389">(compose config)</text></g><!--entity test_backend--><g class="entity" data-qualified-name="pipeline.stage_test.test_backend" data-source-line="15" id="ent0006"><rect fill="#F1F1F1" height="68.8906" rx="2.5" ry="2.5" style="stroke:#181818;stroke-width:0.5;" width="171.7373" x="3654.13" y="122.2969"/><text fill="#000000" font-family="sans-serif" font-size="14" lengthAdjust="spacing" textLength="100.8232" x="3664.13" y="145.292">backend_tests</text><text fill="#000000" font-family="sans-serif" font-size="14" lengthAdjust="spacing" textLength="147.8682" x="3664.13" y="161.5889">(pytest + Hypothesis</text><text fill="#000000" font-family="sans-serif" font-size="14" lengthAdjust="spacing" textLength="151.7373" x="3664.13" y="177.8857">(PostgreSQL service))</text></g><!--entity build_frontend--><g class="entity" data-qualified-name="pipeline.stage_build.build_frontend" data-source-line="19" id="ent0008"><rect fill="#F1F1F1" height="52.5938" rx="2.5" ry="2.5" style="stroke:#181818;stroke-width:0.5;" width="164.1426" x="3881.93" y="130.4469"/><text fill="#000000" font-family="sans-serif" font-size="14" lengthAdjust="spacing" textLength="101.4111" x="3891.93" y="153.442">frontend_build</text><text fill="#000000" font-family="sans-serif" font-size="14" lengthAdjust="spacing" textLength="144.1426" x="3891.93" y="169.7389">(npm ci + vite build)</text></g><!--entity sca_backend--><g class="entity" data-qualified-name="pipeline.stage_security.sca_backend" data-source-line="23" id="ent0010"><rect fill="#F1F1F1" height="52.5938" rx="2.5" ry="2.5" style="stroke:#181818;stroke-width:0.5;" width="293.3965" x="63.3" y="252.5869"/><text fill="#000000" font-family="sans-serif" font-size="14" lengthAdjust="spacing" textLength="28.2393" x="73.3" y="275.582">SCA</text><text fill="#000000" font-family="sans-serif" font-size="14" lengthAdjust="spacing" textLength="273.3965" x="73.3" y="291.8789">backend_dependency_audit (pip-audit)</text></g><!--entity sca_frontend--><g class="entity" data-qualified-name="pipeline.stage_security.sca_frontend" data-source-line="24" id="ent0011"><rect fill="#F1F1F1" height="52.5938" rx="2.5" ry="2.5" style="stroke:#181818;stroke-width:0.5;" width="302.8711" x="391.56" y="252.5869"/><text fill="#000000" font-family="sans-serif" font-size="14" lengthAdjust="spacing" textLength="28.2393" x="401.56" y="275.582">SCA</text><text fill="#000000" font-family="sans-serif" font-size="14" lengthAdjust="spacing" textLength="282.8711" x="401.56" y="291.8789">frontend_dependency_audit (npm audit)</text></g><!--entity sast_bandit--><g class="entity" data-qualified-name="pipeline.stage_security.sast_bandit" data-source-line="26" id="ent0012"><rect fill="#F1F1F1" height="52.5938" rx="2.5" ry="2.5" style="stroke:#181818;stroke-width:0.5;" width="227.6006" x="729.2" y="252.5869"/><text fill="#000000" font-family="sans-serif" font-size="14" lengthAdjust="spacing" textLength="35.9023" x="739.2" y="275.582">SAST</text><text fill="#000000" font-family="sans-serif" font-size="14" lengthAdjust="spacing" textLength="207.6006" x="739.2" y="291.8789">backend_sast_bandit (Bandit)</text></g><!--entity sast_semgrep--><g class="entity" data-qualified-name="pipeline.stage_security.sast_semgrep" data-source-line="27" id="ent0013"><rect fill="#F1F1F1" height="52.5938" rx="2.5" ry="2.5" style="stroke:#181818;stroke-width:0.5;" width="195.998" x="992" y="252.5869"/><text fill="#000000" font-family="sans-serif" font-size="14" lengthAdjust="spacing" textLength="35.9023" x="1002" y="275.582">SAST</text><text fill="#000000" font-family="sans-serif" font-size="14" lengthAdjust="spacing" textLength="175.998" x="1002" y="291.8789">semgrep_sast (Semgrep)</text></g><!--entity secrets_gitleaks--><g class="entity" data-qualified-name="pipeline.stage_security.secrets_gitleaks" data-source-line="29" id="ent0014"><rect fill="#F1F1F1" height="52.5938" rx="2.5" ry="2.5" style="stroke:#181818;stroke-width:0.5;" width="236.7402" x="1222.63" y="252.5869"/><text fill="#000000" font-family="sans-serif" font-size="14" lengthAdjust="spacing" textLength="52.3496" x="1232.63" y="275.582">Secrets</text><text fill="#000000" font-family="sans-serif" font-size="14" lengthAdjust="spacing" textLength="216.7402" x="1232.63" y="291.8789">secret_scan_gitleaks (Gitleaks)</text></g><!--entity iac_checkov--><g class="entity" data-qualified-name="pipeline.stage_security.iac_checkov" data-source-line="31" id="ent0015"><rect fill="#F1F1F1" height="52.5938" rx="2.5" ry="2.5" style="stroke:#181818;stroke-width:0.5;" width="219.7393" x="1494.13" y="252.5869"/><text fill="#000000" font-family="sans-serif" font-size="14" lengthAdjust="spacing" textLength="72.1191" x="1504.13" y="275.582">Config/IaC</text><text fill="#000000" font-family="sans-serif" font-size="14" lengthAdjust="spacing" textLength="199.7393" x="1504.13" y="291.8789">iac_scan_checkov (Checkov)</text></g><!--entity trivy_backend--><g class="entity" data-qualified-name="pipeline.stage_security.trivy_backend" data-source-line="33" id="ent0016"><rect fill="#F1F1F1" height="52.5938" rx="2.5" ry="2.5" style="stroke:#181818;stroke-width:0.5;" width="281.2695" x="1749.37" y="252.5869"/><text fill="#000000" font-family="sans-serif" font-size="14" lengthAdjust="spacing" textLength="68.4141" x="1759.37" y="275.582">Container</text><text fill="#000000" font-family="sans-serif" font-size="14" lengthAdjust="spacing" textLength="261.2695" x="1759.37" y="291.8789">container_scan_backend_trivy (Trivy)</text></g><!--entity trivy_frontend--><g class="entity" data-qualified-name="pipeline.stage_security.trivy_frontend" data-source-line="34" id="ent0017"><rect fill="#F1F1F1" height="52.5938" rx="2.5" ry="2.5" style="stroke:#181818;stroke-width:0.5;" width="281.6113" x="2065.19" y="252.5869"/><text fill="#000000" font-family="sans-serif" font-size="14" lengthAdjust="spacing" textLength="68.4141" x="2075.19" y="275.582">Container</text><text fill="#000000" font-family="sans-serif" font-size="14" lengthAdjust="spacing" textLength="261.6113" x="2075.19" y="291.8789">container_scan_frontend_trivy (Trivy)</text></g><!--entity dast_zap--><g class="entity" data-qualified-name="pipeline.stage_security.dast_zap" data-source-line="36" id="ent0018"><rect fill="#F1F1F1" height="52.5938" rx="2.5" ry="2.5" style="stroke:#181818;stroke-width:0.5;" width="309.9941" x="2382" y="252.5869"/><text fill="#000000" font-family="sans-serif" font-size="14" lengthAdjust="spacing" textLength="37.7959" x="2392" y="275.582">DAST</text><text fill="#000000" font-family="sans-serif" font-size="14" lengthAdjust="spacing" textLength="289.9941" x="2392" y="291.8789">dast_zap_baseline (OWASP ZAP baseline)</text></g><g class="entity" data-qualified-name="pipeline.stage_security.GMN19" data-source-line="39" id="ent0020"><path d="M2726.94,251.1869 L2726.94,306.5853 L3103.0596,306.5853 L3103.0596,261.1869 L3093.0596,251.1869 L2726.94,251.1869" fill="#FEFFDD" style="stroke:#181818;stroke-width:0.5;"/><path d="M3093.0596,251.1869 L3093.0596,261.1869 L3103.0596,261.1869 L3093.0596,251.1869" fill="#FEFFDD" style="stroke:#181818;stroke-width:1;"/><text fill="#000000" font-family="sans-serif" font-size="13" lengthAdjust="spacing" textLength="285.7144" x="2732.94" y="268.2538">Jobs in the security stage are configured for</text><text fill="#000000" font-family="sans-serif" font-size="13" lengthAdjust="spacing" textLength="355.1196" x="2732.94" y="283.3866">visibility-first evidence collection and are non-blocking</text><text fill="#000000" font-family="sans-serif" font-size="13" lengthAdjust="spacing" textLength="95.9004" x="2732.94" y="298.5194">(allow_failure).</text></g><!--entity checklist--><g class="entity" data-qualified-name="manual.checklist" data-source-line="64" id="ent0037"><rect fill="#F1F1F1" height="52.5938" rx="2.5" ry="2.5" style="stroke:#181818;stroke-width:0.5;" width="283.0605" x="1419.47" y="437.5869"/><text fill="#000000" font-family="sans-serif" font-size="14" lengthAdjust="spacing" textLength="185.4385" x="1429.47" y="460.582">Local verification checklist</text><text fill="#000000" font-family="sans-serif" font-size="14" lengthAdjust="spacing" textLength="263.0605" x="1429.47" y="476.8789">(compile/import/tests/build/compose)</text></g><!--entity evidence_docs--><g class="entity" data-qualified-name="manual.evidence_docs" data-source-line="65" id="ent0038"><rect fill="#F1F1F1" height="36.2969" rx="2.5" ry="2.5" style="stroke:#181818;stroke-width:0.5;" width="291.3389" x="1419.33" y="559.1769"/><text fill="#000000" font-family="sans-serif" font-size="14" lengthAdjust="spacing" textLength="271.3389" x="1429.33" y="582.172">Evidence folders under docs/evidence/</text></g><!--entity artifacts--><g class="entity" data-qualified-name="artifacts" data-source-line="46" id="ent0022"><path d="M1776.3,428.5869 L1817.3,428.5869 A3.75,3.75 0 0 1 1819.8,431.0869 L1826.8,449.5869 L2003.7053,449.5869 A2.5,2.5 0 0 1 2006.2053,452.0869 L2006.2053,496.6806 A2.5,2.5 0 0 1 2003.7053,499.1806 L1776.3,499.1806 A2.5,2.5 0 0 1 1773.8,496.6806 L1773.8,431.0869 A2.5,2.5 0 0 1 1776.3,428.5869" fill="#F1F1F1" style="stroke:#181818;stroke-width:0.5;"/><line style="stroke:#181818;stroke-width:0.5;" x1="1773.8" x2="1826.8" y1="449.5869" y2="449.5869"/><text fill="#000000" font-family="sans-serif" font-size="14" lengthAdjust="spacing" textLength="77.0547" x="1783.8" y="469.582">CI Artifacts</text><text fill="#000000" font-family="sans-serif" font-size="14" lengthAdjust="spacing" textLength="202.4053" x="1783.8" y="485.8789">(JSON / HTML / MD evidence)</text></g><g class="entity" data-qualified-name="GMN41" data-source-line="72" id="ent0042"><path d="M2040.89,436.1869 L2040.89,491.5853 L2437.1127,491.5853 L2437.1127,446.1869 L2427.1127,436.1869 L2040.89,436.1869" fill="#FEFFDD" style="stroke:#181818;stroke-width:0.5;"/><path d="M2427.1127,436.1869 L2427.1127,446.1869 L2437.1127,446.1869 L2427.1127,436.1869" fill="#FEFFDD" style="stroke:#181818;stroke-width:1;"/><text fill="#000000" font-family="sans-serif" font-size="13" lengthAdjust="spacing" textLength="375.2227" x="2046.89" y="453.2538">Artifacts and documentation are used as thesis evidence.</text><text fill="#000000" font-family="sans-serif" font-size="13" lengthAdjust="spacing" textLength="253.3984" x="2046.89" y="468.3866">They do not prove production security,</text><text fill="#000000" font-family="sans-serif" font-size="13" lengthAdjust="spacing" textLength="305.1953" x="2046.89" y="483.5194">authenticated security posture, or compliance.</text></g><!--link stage_security to GMN19--><g class="link" data-entity-1="ent0009" data-entity-2="ent0020" data-link-type="association" data-source-line="39" id="lnk21"><path d="M2915,157.8269 C2915,160.3269 2915,216.1369 2915,250.7769" fill="none" id="stage_security-GMN19" style="stroke:#181818;stroke-width:1;stroke-dasharray:7,7;"/></g><!--link validate_backend to artifacts--><g class="link" data-entity-1="ent0003" data-entity-2="ent0022" data-link-type="dependency" data-source-line="48" id="lnk23"><path d="M3265.31,183.4869 C3245.91,230.8369 3197.31,330.5269 3119,370.5869 C3091.89,384.4469 2052.21,369.9969 2023,378.5869 C1989.43,388.4569 1960.1835,427.5415 1935.3235,446.1415" fill="none" id="validate_backend-to-artifacts" style="stroke:#181818;stroke-width:1;"/><polygon fill="#181818" points="1931.32,449.1369,1940.9225,446.948,1935.3235,446.1415,1936.13,440.5424,1931.32,449.1369" style="stroke:#181818;stroke-width:1;stroke-linejoin:miter;stroke-miterlimit:10;"/></g><!--link validate_compose to artifacts--><g class="link" data-entity-1="ent0004" data-entity-2="ent0022" data-link-type="dependency" data-source-line="49" id="lnk24"><path d="M3479.85,183.1969 C3432.54,230.9869 3322.01,332.7569 3205,370.5869 C3142.52,390.7869 2086,360.0669 2023,378.5869 C1989.43,388.4569 1960.1827,427.5305 1935.3227,446.1405" fill="none" id="validate_compose-to-artifacts" style="stroke:#181818;stroke-width:1;"/><polygon fill="#181818" points="1931.32,449.1369,1940.922,446.9455,1935.3227,446.1405,1936.1278,440.5412,1931.32,449.1369" style="stroke:#181818;stroke-width:1;stroke-linejoin:miter;stroke-miterlimit:10;"/></g><!--link test_backend to artifacts--><g class="link" data-entity-1="ent0006" data-entity-2="ent0022" data-link-type="dependency" data-source-line="50" id="lnk25"><path d="M3694.18,191.6069 C3622.56,242.2169 3477.76,335.4169 3338,370.5869 C3267.15,388.4169 2093.1,358.0069 2023,378.5869 C1989.42,388.4369 1960.1721,427.5197 1935.3221,446.1297" fill="none" id="test_backend-to-artifacts" style="stroke:#181818;stroke-width:1;"/><polygon fill="#181818" points="1931.32,449.1269,1940.9216,446.9337,1935.3221,446.1297,1936.1261,440.5303,1931.32,449.1269" style="stroke:#181818;stroke-width:1;stroke-linejoin:miter;stroke-miterlimit:10;"/></g><!--link build_frontend to artifacts--><g class="link" data-entity-1="ent0008" data-entity-2="ent0022" data-link-type="dependency" data-source-line="51" id="lnk26"><path d="M3924.45,183.3769 C3847.61,231.4969 3671.17,333.7769 3506,370.5869 C3465.79,379.5469 2062.53,366.9969 2023,378.5869 C1989.42,388.4269 1960.1721,427.5097 1935.3221,446.1197" fill="none" id="build_frontend-to-artifacts" style="stroke:#181818;stroke-width:1;"/><polygon fill="#181818" points="1931.32,449.1169,1940.9216,446.9237,1935.3221,446.1197,1936.1261,440.5203,1931.32,449.1169" style="stroke:#181818;stroke-width:1;stroke-linejoin:miter;stroke-miterlimit:10;"/></g><!--link sca_backend to artifacts--><g class="link" data-entity-1="ent0010" data-entity-2="ent0022" data-link-type="dependency" data-source-line="53" id="lnk27"><path d="M244.27,305.5769 C276.02,327.6769 325.52,357.9269 374,370.5869 C448.18,389.9569 1680.32,357.3769 1754,378.5869 C1788.17,388.4269 1818.1341,427.5453 1843.5941,446.1653" fill="none" id="sca_backend-to-artifacts" style="stroke:#181818;stroke-width:1;"/><polygon fill="#181818" points="1847.63,449.1169,1842.7267,440.5753,1843.5941,446.1653,1838.0042,447.0327,1847.63,449.1169" style="stroke:#181818;stroke-width:1;stroke-linejoin:miter;stroke-miterlimit:10;"/></g><!--link sca_frontend to artifacts--><g class="link" data-entity-1="ent0011" data-entity-2="ent0022" data-link-type="dependency" data-source-line="54" id="lnk28"><path d="M578.45,305.5669 C611.25,327.6469 662.32,357.8969 712,370.5869 C768.09,384.9169 1698.38,362.5169 1754,378.5869 C1788.16,388.4569 1818.1234,427.5763 1843.5834,446.1863" fill="none" id="sca_frontend-to-artifacts" style="stroke:#181818;stroke-width:1;"/><polygon fill="#181818" points="1847.62,449.1369,1842.7146,440.5966,1843.5834,446.1863,1837.9937,447.0552,1847.62,449.1369" style="stroke:#181818;stroke-width:1;stroke-linejoin:miter;stroke-miterlimit:10;"/></g><!--link sast_bandit to artifacts--><g class="link" data-entity-1="ent0012" data-entity-2="ent0022" data-link-type="dependency" data-source-line="55" id="lnk29"><path d="M869.72,305.4669 C894.7,327.4769 934.17,357.6769 975,370.5869 C1016.27,383.6269 1712.44,366.5169 1754,378.5869 C1788.15,388.4969 1818.1119,427.6284 1843.5719,446.2184" fill="none" id="sast_bandit-to-artifacts" style="stroke:#181818;stroke-width:1;"/><polygon fill="#181818" points="1847.61,449.1669,1842.7002,440.6291,1843.5719,446.2184,1837.9826,447.0901,1847.61,449.1669" style="stroke:#181818;stroke-width:1;stroke-linejoin:miter;stroke-miterlimit:10;"/></g><!--link sast_semgrep to artifacts--><g class="link" data-entity-1="ent0013" data-entity-2="ent0022" data-link-type="dependency" data-source-line="56" id="lnk30"><path d="M1112.65,305.3669 C1133.98,327.3269 1168.1,357.4869 1205,370.5869 C1262.49,390.9969 1695.45,361.4469 1754,378.5869 C1788.13,388.5769 1818.0911,427.6994 1843.5511,446.2794" fill="none" id="sast_semgrep-to-artifacts" style="stroke:#181818;stroke-width:1;"/><polygon fill="#181818" points="1847.59,449.2269,1842.678,440.6904,1843.5511,446.2794,1837.9621,447.1526,1847.59,449.2269" style="stroke:#181818;stroke-width:1;stroke-linejoin:miter;stroke-miterlimit:10;"/></g><!--link secrets_gitleaks to artifacts--><g class="link" data-entity-1="ent0014" data-entity-2="ent0022" data-link-type="dependency" data-source-line="57" id="lnk31"><path d="M1368.99,305.5069 C1394.87,327.3869 1435.49,357.3569 1477,370.5869 C1535.67,389.2869 1695.02,360.8669 1754,378.5869 C1787.92,388.7769 1817.7426,427.7911 1843.1926,446.2511" fill="none" id="secrets_gitleaks-to-artifacts" style="stroke:#181818;stroke-width:1;"/><polygon fill="#181818" points="1847.24,449.1869,1842.3033,440.6646,1843.1926,446.2511,1837.6061,447.1404,1847.24,449.1869" style="stroke:#181818;stroke-width:1;stroke-linejoin:miter;stroke-miterlimit:10;"/></g><!--link iac_checkov to artifacts--><g class="link" data-entity-1="ent0015" data-entity-2="ent0022" data-link-type="dependency" data-source-line="58" id="lnk32"><path d="M1635.08,305.5169 C1660.1,325.2269 1696.78,352.1269 1732,370.5869 C1741.22,375.4169 1744.64,374.0469 1754,378.5869 C1783.49,392.8969 1810.5019,430.1955 1835.5719,446.5455" fill="none" id="iac_checkov-to-artifacts" style="stroke:#181818;stroke-width:1;"/><polygon fill="#181818" points="1839.76,449.2769,1834.4066,441.01,1835.5719,446.5455,1830.0364,447.7109,1839.76,449.2769" style="stroke:#181818;stroke-width:1;stroke-linejoin:miter;stroke-miterlimit:10;"/></g><!--link trivy_backend to artifacts--><g class="link" data-entity-1="ent0016" data-entity-2="ent0022" data-link-type="dependency" data-source-line="59" id="lnk33"><path d="M1890,305.3269 C1890,337.3469 1890,408.4669 1890,444.2869" fill="none" id="trivy_backend-to-artifacts" style="stroke:#181818;stroke-width:1;"/><polygon fill="#181818" points="1890,449.2869,1894,440.2869,1890,444.2869,1886,440.2869,1890,449.2869" style="stroke:#181818;stroke-width:1;stroke-linejoin:miter;stroke-miterlimit:10;"/></g><!--link trivy_frontend to artifacts--><g class="link" data-entity-1="ent0017" data-entity-2="ent0022" data-link-type="dependency" data-source-line="60" id="lnk34"><path d="M2166.64,305.6169 C2135.39,325.2569 2090.11,352.0169 2048,370.5869 C2037.33,375.2969 2033.57,373.6469 2023,378.5869 C1993.53,392.3669 1966.8622,429.7466 1942.3222,446.3366" fill="none" id="trivy_frontend-to-artifacts" style="stroke:#181818;stroke-width:1;"/><polygon fill="#181818" points="1938.18,449.1369,1947.8763,447.4101,1942.3222,446.3366,1943.3958,440.7825,1938.18,449.1369" style="stroke:#181818;stroke-width:1;stroke-linejoin:miter;stroke-miterlimit:10;"/></g><!--link dast_zap to artifacts--><g class="link" data-entity-1="ent0018" data-entity-2="ent0022" data-link-type="dependency" data-source-line="61" id="lnk35"><path d="M2500.24,305.5969 C2466.55,327.5369 2414.4,357.5469 2364,370.5869 C2290.62,389.5669 2095.54,356.6069 2023,378.5869 C1989.64,388.6969 1960.5316,427.6624 1935.6916,446.1424" fill="none" id="dast_zap-to-artifacts" style="stroke:#181818;stroke-width:1;"/><polygon fill="#181818" points="1931.68,449.1269,1941.2885,446.9641,1935.6916,446.1424,1936.5133,440.5455,1931.68,449.1269" style="stroke:#181818;stroke-width:1;stroke-linejoin:miter;stroke-miterlimit:10;"/></g><!--link artifacts to evidence_docs--><g class="link" data-entity-1="ent0022" data-entity-2="ent0038" data-link-type="dependency" data-source-line="68" id="lnk39"><path d="M1788.95,499.5369 C1731.74,519.1469 1667.3498,541.2355 1621.1698,557.0655" fill="none" id="artifacts-to-evidence_docs" style="stroke:#181818;stroke-width:1;"/><polygon fill="#181818" points="1616.44,558.6869,1626.2508,559.5523,1621.1698,557.0655,1623.6566,551.9846,1616.44,558.6869" style="stroke:#181818;stroke-width:1;stroke-linejoin:miter;stroke-miterlimit:10;"/></g><!--link checklist to evidence_docs--><g class="link" data-entity-1="ent0037" data-entity-2="ent0038" data-link-type="dependency" data-source-line="69" id="lnk40"><path d="M1561.92,490.4469 C1562.67,511.3969 1563.5305,535.4901 1564.1905,553.8601" fill="none" id="checklist-to-evidence_docs" style="stroke:#181818;stroke-width:1;"/><polygon fill="#181818" points="1564.37,558.8569,1568.0443,549.7191,1564.1905,553.8601,1560.0494,550.0063,1564.37,558.8569" style="stroke:#181818;stroke-width:1;stroke-linejoin:miter;stroke-miterlimit:10;"/></g><!--link manual to GMN41--><g class="link" data-entity-1="ent0036" data-entity-2="ent0042" data-link-type="association" data-source-line="72" id="lnk43"><path d="M1745.3256,394.2998 C1745.3857,394.1711 1745.4463,394.0426 1745.5072,393.9143 C1745.7509,393.4012 1746.0009,392.8915 1746.2572,392.3854 C1746.7698,391.3734 1747.308,390.3761 1747.8727,389.3957 C1750.1316,385.4744 1752.8162,381.8244 1756,378.5869 C1761.59,372.8969 1765.57,375.4769 1773.5,374.5869 C1799.23,371.6869 1980.77,371.6869 2006.5,374.5869 C2072.24,382.0069 2142.45,412.4469 2188.3,435.7469" fill="none" id="manual-GMN41" style="stroke:#181818;stroke-width:1;stroke-dasharray:7,7;"/></g><?plantuml-src TLPTRkCs47xNAGPvif7rwWO5NANTpI9fN2X0WMuAWPOecmXD2YJbXLiKw25wmfwamw78CDma3n79R_v8Vj_GJZZ9eMr-RhQmqmtyzy-_SCFFBUyV9WixCN4f50Uc1lZfB0QkUWuFivjcPs7rIRWxjeVcjcvkrbLbduMQc64di4Ssw6z27M1aql8CwVLfqeehrxeB9ZQyTqmT9A-gD8IhF6wguGgOXIaMz5TL0MGkPoR5m5omieuTU1UNq1Rmx-kUzSzS3PqlGKZU2Qp4k2UrMXQOb70DR9eW8Ei_VAmOfLlSGwn1uyHGA6qvVjKe3aieN82mK4HOG8pmTr6zuzPbbVjfMRLVivXXkX1w3PylatP7ReLVtMdh3eQtlzw1vUOiUhuEoRrnLdgPU3yBEMIPQHvJZqOhvtFJAcPH4rwWmDndWSTAgo4B3Rje_qOUo_lP27U1rLbOiHSInvjH6ElMMVPajHJGDjid5GzWu1D-a82NZis3SB12Ccne68gmFNjzIUIUDl6zlzzEuP-si4JOjeyl5LX6Pwd8-KVwBfulGEvd-GdlP28_MBLXbdaiUCp5UyFz5LiQT5YEwWvUdkmvQ8r6YtymJlWIeo7QrRUiULA2zI56V-Jzipx3gWc34C732_BYx1XgopofFWv3XCH18yvuXO_-iz3B3r-V-ljXqbMy5wSu_HiwnS4VrPzimYmsQ7_ryDkstS7lsnt4jH0bcWP_fJr9jNFw17eiA4OMN_GU3q81oWWIzyWEc8aYdWqVODI6F4hs0ezDiTTI8j-5LjGilR_IQhENs2cm4PBt2bkC_jQDJ4YCklv8YxXVAfLKWxePjHouWQlc5hR6YP7rfFilxSClKCFdn_ix_DpVfCn1G2oQLbNPiM2p-I73otPKm7d3AA3NAY_0AfDV0UN2Ag5CKcyWYq9Ag21_0MVCBlUMi_LDx9qo8x7AFMSTxfwfcSdOx3qDhZshaKjqFwS0-yRszKxttf8RCOe-s5AzKjZiEQh3ArHJuw_fxElboWBRau-FcHxdG1yBi_8imdVArf4fDRd5MUSnJxYq7zhTQpZbU0EhI61678xEwolii4gS9HcWuNp2rpxiqejYjYWdhtXwkbB8ZzNZaL_Gtci19gFFtFyVvY2fgCuF5PlHKpb_S1WegHQFnQ6cFe0sz1j32aPHaxh-1m00?></g></svg>