<svg xmlns="http://www.w3.org/2000/svg" xmlns:xlink="http://www.w3.org/1999/xlink" contentStyleType="text/css" data-diagram-type="DESCRIPTION" height="755px" preserveAspectRatio="none" style="width:804px;height:755px;background:#FFFFFF;" version="1.1" viewBox="0 0 804 755" width="804px" zoomAndPan="magnify"><?plantuml 1.2026.4?><defs/><g><g class="title" data-source-line="2"><text fill="#000000" font-family="sans-serif" font-size="14" font-weight="700" lengthAdjust="spacing" textLength="458.958" x="169.064" y="22.9951">SCFCA PoC &#8212; Docker Compose Container Execution Model</text></g><!--cluster host--><g class="cluster" data-qualified-name="host" data-source-line="7" id="ent0001"><rect fill="none" height="154.29" rx="2.5" ry="2.5" style="stroke:#181818;stroke-width:1;" width="639" x="57" y="44.2969"/><text fill="#000000" font-family="sans-serif" font-size="14" font-weight="700" lengthAdjust="spacing" textLength="36.3604" x="358.3198" y="59.292">Host</text></g><!--cluster ports--><g class="cluster" data-qualified-name="host.ports" data-source-line="9" id="ent0003"><rect fill="none" height="87.29" rx="2.5" ry="2.5" style="stroke:#181818;stroke-width:1;" width="348" x="81" y="87.2969"/><text fill="#000000" font-family="sans-serif" font-size="14" font-weight="700" lengthAdjust="spacing" textLength="124.1064" x="192.9468" y="102.292">Published ports</text></g><!--cluster compose--><g class="cluster" data-qualified-name="compose" data-source-line="16" id="ent0007"><rect fill="none" height="493.69" rx="2.5" ry="2.5" style="stroke:#181818;stroke-width:1;" width="254" x="7" y="247.5869"/><text fill="#000000" font-family="sans-serif" font-size="14" font-weight="700" lengthAdjust="spacing" textLength="203.2324" x="32.3838" y="262.582">Docker Compose Runtime</text></g><!--entity hostnode--><g class="entity" data-qualified-name="host.hostnode" data-source-line="8" id="ent0002"><polygon fill="#F1F1F1" points="448.49,127.2969,458.49,117.2969,679.5066,117.2969,679.5066,153.5938,669.5066,163.5938,448.49,163.5938,448.49,127.2969" style="stroke:#181818;stroke-width:0.5;stroke-linejoin:miter;stroke-miterlimit:10;"/><line style="stroke:#181818;stroke-width:0.5;" x1="669.5066" x2="679.5066" y1="127.2969" y2="117.2969"/><line style="stroke:#181818;stroke-width:0.5;" x1="448.49" x2="669.5066" y1="127.2969" y2="127.2969"/><line style="stroke:#181818;stroke-width:0.5;" x1="669.5066" x2="669.5066" y1="127.2969" y2="163.5938"/><text fill="#000000" font-family="sans-serif" font-size="14" lengthAdjust="spacing" textLength="191.0166" x="463.49" y="150.292">Developer / CI Runner Host</text></g><!--entity p5432--><g class="entity" data-qualified-name="host.ports.p5432" data-source-line="10" id="ent0004"><rect fill="#F1F1F1" height="36.2969" rx="2.5" ry="2.5" style="stroke:#181818;stroke-width:0.5;" width="82.4189" x="96.79" y="122.2969"/><text fill="#000000" font-family="sans-serif" font-size="14" lengthAdjust="spacing" textLength="62.4189" x="106.79" y="145.292">5432/tcp</text></g><!--entity p8000--><g class="entity" data-qualified-name="host.ports.p8000" data-source-line="11" id="ent0005"><rect fill="#F1F1F1" height="36.2969" rx="2.5" ry="2.5" style="stroke:#181818;stroke-width:0.5;" width="82.4189" x="213.79" y="122.2969"/><text fill="#000000" font-family="sans-serif" font-size="14" lengthAdjust="spacing" textLength="62.4189" x="223.79" y="145.292">8000/tcp</text></g><!--entity p5173--><g class="entity" data-qualified-name="host.ports.p5173" data-source-line="12" id="ent0006"><rect fill="#F1F1F1" height="36.2969" rx="2.5" ry="2.5" style="stroke:#181818;stroke-width:0.5;" width="82.4189" x="330.79" y="122.2969"/><text fill="#000000" font-family="sans-serif" font-size="14" lengthAdjust="spacing" textLength="62.4189" x="340.79" y="145.292">5173/tcp</text></g><!--entity postgres--><g class="entity" data-qualified-name="compose.postgres" data-source-line="17" id="ent0008"><path d="M22.99,292.5869 C22.99,282.5869 104.0017,282.5869 104.0017,282.5869 C104.0017,282.5869 185.0134,282.5869 185.0134,292.5869 L185.0134,334.1806 C185.0134,344.1806 104.0017,344.1806 104.0017,344.1806 C104.0017,344.1806 22.99,344.1806 22.99,334.1806 L22.99,292.5869" fill="#F1F1F1" style="stroke:#181818;stroke-width:0.5;"/><path d="M22.99,292.5869 C22.99,302.5869 104.0017,302.5869 104.0017,302.5869 C104.0017,302.5869 185.0134,302.5869 185.0134,292.5869" fill="none" style="stroke:#181818;stroke-width:0.5;"/><text fill="#000000" font-family="sans-serif" font-size="14" lengthAdjust="spacing" textLength="60.7852" x="32.99" y="319.582">postgres</text><text fill="#000000" font-family="sans-serif" font-size="14" lengthAdjust="spacing" textLength="142.0234" x="32.99" y="335.8789">(postgres:16-alpine)</text></g><!--entity backend--><g class="entity" data-qualified-name="compose.backend" data-source-line="18" id="ent0009"><rect fill="#F1F1F1" height="52.5938" rx="2.5" ry="2.5" style="stroke:#181818;stroke-width:0.5;" width="222.1182" x="22.94" y="479.8869"/><text fill="#000000" font-family="sans-serif" font-size="14" lengthAdjust="spacing" textLength="59.6436" x="32.94" y="502.882">backend</text><text fill="#000000" font-family="sans-serif" font-size="14" lengthAdjust="spacing" textLength="202.1182" x="32.94" y="519.1789">(python:3.12-slim + uvicorn)</text></g><!--entity frontend--><g class="entity" data-qualified-name="compose.frontend" data-source-line="19" id="ent0010"><rect fill="#F1F1F1" height="52.5938" rx="2.5" ry="2.5" style="stroke:#181818;stroke-width:0.5;" width="213.3203" x="30.34" y="672.6869"/><text fill="#000000" font-family="sans-serif" font-size="14" lengthAdjust="spacing" textLength="59.9854" x="40.34" y="695.682">frontend</text><text fill="#000000" font-family="sans-serif" font-size="14" lengthAdjust="spacing" textLength="193.3203" x="40.34" y="711.9789">(node:20-alpine + vite dev)</text></g><g class="entity" data-qualified-name="GMN16" data-source-line="30" id="ent0017"><path d="M550.92,440.6469 L550.92,502.1869 L245.49,506.1869 L550.92,510.1869 L550.92,571.7094 A0,0 0 0 0 550.92,571.7094 L789.086,571.7094 A0,0 0 0 0 789.086,571.7094 L789.086,450.6469 L779.086,440.6469 L550.92,440.6469 A0,0 0 0 0 550.92,440.6469" fill="#FEFFDD" style="stroke:#181818;stroke-width:0.5;"/><path d="M779.086,440.6469 L779.086,450.6469 L789.086,450.6469 L779.086,440.6469" fill="#FEFFDD" style="stroke:#181818;stroke-width:0.5;"/><text fill="#000000" font-family="sans-serif" font-size="13" lengthAdjust="spacing" textLength="217.166" x="556.92" y="457.7138">Hardening (Compose/Dockerfile):</text><text fill="#000000" font-family="sans-serif" font-size="13" lengthAdjust="spacing" textLength="148.3828" x="556.92" y="472.8466">- runs as non-root user</text><text fill="#000000" font-family="sans-serif" font-size="13" lengthAdjust="spacing" textLength="143.311" x="556.92" y="487.9794">- read_only filesystem</text><text fill="#000000" font-family="sans-serif" font-size="13" lengthAdjust="spacing" textLength="99.582" x="556.92" y="503.1122">- /tmp as tmpfs</text><text fill="#000000" font-family="sans-serif" font-size="13" lengthAdjust="spacing" textLength="100.3818" x="556.92" y="518.245">- cap_drop: ALL</text><text fill="#000000" font-family="sans-serif" font-size="13" lengthAdjust="spacing" textLength="212.6338" x="556.92" y="533.3778">- security_opt: no-new-privileges</text><text fill="#000000" font-family="sans-serif" font-size="13" lengthAdjust="spacing" textLength="85.1284" x="556.92" y="548.5106">Healthcheck:</text><text fill="#000000" font-family="sans-serif" font-size="13" lengthAdjust="spacing" textLength="171.2788" x="556.92" y="563.6435">- HTTP GET /api/v1/health/</text></g><g class="entity" data-qualified-name="GMN19" data-source-line="41" id="ent0020"><path d="M278.92,663.7169 L278.92,694.9769 L244.05,698.9769 L278.92,702.9769 L278.92,734.2481 A0,0 0 0 0 278.92,734.2481 L517.086,734.2481 A0,0 0 0 0 517.086,734.2481 L517.086,673.7169 L507.086,663.7169 L278.92,663.7169 A0,0 0 0 0 278.92,663.7169" fill="#FEFFDD" style="stroke:#181818;stroke-width:0.5;"/><path d="M507.086,663.7169 L507.086,673.7169 L517.086,673.7169 L507.086,663.7169" fill="#FEFFDD" style="stroke:#181818;stroke-width:0.5;"/><text fill="#000000" font-family="sans-serif" font-size="13" lengthAdjust="spacing" textLength="217.166" x="284.92" y="680.7838">Hardening (Compose/Dockerfile):</text><text fill="#000000" font-family="sans-serif" font-size="13" lengthAdjust="spacing" textLength="148.3828" x="284.92" y="695.9166">- runs as non-root user</text><text fill="#000000" font-family="sans-serif" font-size="13" lengthAdjust="spacing" textLength="100.3818" x="284.92" y="711.0494">- cap_drop: ALL</text><text fill="#000000" font-family="sans-serif" font-size="13" lengthAdjust="spacing" textLength="212.6338" x="284.92" y="726.1822">- security_opt: no-new-privileges</text></g><g class="entity" data-qualified-name="GMN22" data-source-line="48" id="ent0023"><path d="M551.18,278.1169 L551.18,348.6481 L784.8138,348.6481 L784.8138,288.1169 L774.8138,278.1169 L551.18,278.1169" fill="#FEFFDD" style="stroke:#181818;stroke-width:0.5;"/><path d="M774.8138,278.1169 L774.8138,288.1169 L784.8138,288.1169 L774.8138,278.1169" fill="#FEFFDD" style="stroke:#181818;stroke-width:1;"/><text fill="#000000" font-family="sans-serif" font-size="13" lengthAdjust="spacing" textLength="147.0054" x="557.18" y="295.1838">Hardening (Compose):</text><text fill="#000000" font-family="sans-serif" font-size="13" lengthAdjust="spacing" textLength="212.6338" x="557.18" y="310.3166">- security_opt: no-new-privileges</text><text fill="#000000" font-family="sans-serif" font-size="13" lengthAdjust="spacing" textLength="85.1284" x="557.18" y="325.4494">Healthcheck:</text><text fill="#000000" font-family="sans-serif" font-size="13" lengthAdjust="spacing" textLength="79.4663" x="557.18" y="340.5822">- pg_isready</text></g><!--reverse link postgres to backend--><g class="link" data-entity-1="ent0008" data-entity-2="ent0009" data-link-type="dependency" data-source-line="21" id="lnk11"><path d="M109.5273,349.5561 C115.3973,386.8561 124.49,444.6869 129.99,479.6669" fill="none" id="postgres-backto-backend" style="stroke:#181818;stroke-width:1;"/><polygon fill="#181818" points="108.75,344.6169,106.1978,354.1293,109.5273,349.5561,114.1005,352.8856,108.75,344.6169" style="stroke:#181818;stroke-width:1;stroke-linejoin:miter;stroke-miterlimit:10;"/><text fill="#000000" font-family="sans-serif" font-size="13" lengthAdjust="spacing" textLength="102.3052" x="120" y="391.7138">DATABASE_URL</text><text fill="#000000" font-family="sans-serif" font-size="13" lengthAdjust="spacing" textLength="93.9072" x="124.199" y="406.8466">postgres:5432</text></g><!--reverse link backend to frontend--><g class="link" data-entity-1="ent0009" data-entity-2="ent0010" data-link-type="dependency" data-source-line="22" id="lnk12"><path d="M134.4794,537.9162 C135.0594,574.4262 136.02,635.8969 136.6,672.3569" fill="none" id="backend-backto-frontend" style="stroke:#181818;stroke-width:1;"/><polygon fill="#181818" points="134.4,532.9169,130.5435,541.9793,134.4794,537.9162,138.5425,541.8522,134.4,532.9169" style="stroke:#181818;stroke-width:1;stroke-linejoin:miter;stroke-miterlimit:10;"/><text fill="#000000" font-family="sans-serif" font-size="13" lengthAdjust="spacing" textLength="78.457" x="136.94" y="614.7838">depends_on</text><text fill="#000000" font-family="sans-serif" font-size="13" lengthAdjust="spacing" textLength="55.3833" x="148.4769" y="629.9166">backend</text></g><!--link p5432 to postgres--><g class="link" data-entity-1="ent0004" data-entity-2="ent0008" data-link-type="dependency" data-source-line="25" id="lnk13"><path d="M99.01,158.9869 C77.04,171.1669 51.56,189.6869 39,214.5869 C26.97,238.4369 40.6439,260.0442 60.4139,278.8142" fill="none" id="p5432-to-postgres" style="stroke:#181818;stroke-width:1;"/><polygon fill="#181818" points="64.04,282.2569,60.2672,273.1593,60.4139,278.8142,54.759,278.961,64.04,282.2569" style="stroke:#181818;stroke-width:1;stroke-linejoin:miter;stroke-miterlimit:10;"/><text fill="#000000" font-family="sans-serif" font-size="13" lengthAdjust="spacing" textLength="188.4365" x="40" y="227.6538">host:5432 -&gt; container:5432</text></g><!--link p8000 to backend--><g class="link" data-entity-1="ent0005" data-entity-2="ent0009" data-link-type="dependency" data-source-line="26" id="lnk14"><path d="M257.44,158.8969 C262.84,203.4069 272.29,323.7669 231,410.6469 C217.78,438.4769 196.6104,459.4736 175.2604,476.3736" fill="none" id="p8000-to-backend" style="stroke:#181818;stroke-width:1;"/><polygon fill="#181818" points="171.34,479.4769,180.8794,477.0273,175.2604,476.3736,175.9141,470.7546,171.34,479.4769" style="stroke:#181818;stroke-width:1;stroke-linejoin:miter;stroke-miterlimit:10;"/><text fill="#000000" font-family="sans-serif" font-size="13" lengthAdjust="spacing" textLength="188.4365" x="263.35" y="317.9538">host:8000 -&gt; container:8000</text></g><!--link p5173 to frontend--><g class="link" data-entity-1="ent0006" data-entity-2="ent0010" data-link-type="dependency" data-source-line="27" id="lnk15"><path d="M381.95,158.8569 C390.3,172.6369 403.07,191.9469 417,206.5869 C433.6,224.0469 449.35,217.9869 460,239.5869 C481.44,283.0669 476.43,303.0469 460,348.6469 C405.9,498.8269 253.5262,618.4839 180.0662,669.5239" fill="none" id="p5173-to-frontend" style="stroke:#181818;stroke-width:1;"/><polygon fill="#181818" points="175.96,672.3769,185.6335,670.5265,180.0662,669.5239,181.0687,663.9566,175.96,672.3769" style="stroke:#181818;stroke-width:1;stroke-linejoin:miter;stroke-miterlimit:10;"/><text fill="#000000" font-family="sans-serif" font-size="13" lengthAdjust="spacing" textLength="188.4365" x="447.93" y="399.2138">host:5173 -&gt; container:5173</text></g><!--link GMN22 to postgres--><g class="link" data-entity-1="ent0023" data-entity-2="ent0008" data-link-type="association" data-source-line="48" id="lnk24"><path d="M619.57,277.6469 C588.87,257.2769 547.38,233.7369 506.5,223.0869 C446.93,207.5669 288.09,204.2069 229.5,223.0869 C193.48,234.6969 159.07,260.9169 135.42,282.1269" fill="none" id="GMN22-postgres" style="stroke:#181818;stroke-width:1;stroke-dasharray:7,7;"/></g><?plantuml-src dLFRYjim47ttLmnvsb1Svz8RfYoaITeKjX0swTEc1CKUnoAE92JPsx0iz2FwXVsIZcGxjpvjdwmPdPbpvenikIqG5kFFun7CvHZ-_FeD4vdiKCDOxfKqI5zX6HUKcVx4fBHS2lWcKoo2mEouK4opFPYSfVAHYorah31uTfEuDWA5NTW3KMbCB1FR0eFWU8JEJ1hR0MOWfmCy1G226A0pmGeBgOWxWl5Nk2-5qt61Ta32dpMRbvk2cnnJK59Ruv7-v1i3FBnzCnn4Db4__8sBwlo7NgztohkemVVV3y_m557-ENY-6E7ADP9g-HuzUTBa77tABDim2ZgKibkDPYLkscFSVnUoGf7PtKPrdQUwXmsZ_Y9rw8FDfOY7h_k3q1Hy3w-Wh7WYjUXwXGtI5MMQbbTNEP_YGQ_fJpKLjmWfLdLHYmoehAM5Zo4jLOHjHuXXCbgEFeqMq_Nt-xkLEEfkF6nnRLtRb0fJL7GmQobMeXL81dht8GnlJwInNsjSNzoIUStpgqdyMdp1IPJ7r_bpl5-WNvV7ducf2Vp51O7RR20a-QBvDhSWiwEPCwPJ5Ew1tpGhZkgDPxp0RXo4e4jXd9D2Yb1BQQ4qg5qUMKfZ5mTmK7Cm5lUKZknUEJXzCaDnmjGwrLB5CBgxezZGlwQvFQobiZ4r3GK-XahpYffiwKdCa1KsJt9CTevzjbpEuSjq2H5JFAhwKUxley1Dx4Qw7kouyF-VxAMIhwGKc7abnrV-hn9F_q8dr7RDZJFzS2By2m00?></g></svg>